<?xml version="1.0" encoding="utf-8"?>
<!-- Generator: Adobe Illustrator 26.0.3, SVG Export Plug-In . SVG Version: 6.00 Build 0)  -->
<svg version="1.1" id="Capa_1" xmlns="http://www.w3.org/2000/svg" xmlns:xlink="http://www.w3.org/1999/xlink" x="0px" y="0px"
	 viewBox="0 0 48 48" style="enable-background:new 0 0 48 48;" xml:space="preserve">
<style type="text/css">
	.st0{fill:url(#SVGID_1_);}
	.st1{fill:url(#SVGID_00000090268209138637134760000013167102613517573015_);}
	.st2{fill:url(#SVGID_00000021830087296012344610000000246686895951213711_);}
	.st3{fill:url(#SVGID_00000101797118402631221120000002693936931152437679_);}
	.st4{fill:url(#SVGID_00000076566942924453280490000001603556154971656613_);}
	.st5{fill:url(#SVGID_00000085932858231900019510000009318238790996094892_);}
	.st6{fill:url(#SVGID_00000102511706984508749540000017134559487777418397_);}
</style>
<g id="back">
	<g>
		<linearGradient id="SVGID_1_" gradientUnits="userSpaceOnUse" x1="31.3924" y1="22.7627" x2="33.7" y2="18.6921">
			<stop  offset="0" style="stop-color:#F76718"/>
			<stop  offset="1" style="stop-color:#DC4715"/>
		</linearGradient>
		<path class="st0" d="M32.6,16c0,0,0-0.1,0-0.1l-2.9,5l2.8,4.8c0,0,0,0.1,0,0.1l2.9-5L32.6,16z"/>
	</g>
	<g>
		
			<linearGradient id="SVGID_00000107562563398017494290000002783876022183364030_" gradientUnits="userSpaceOnUse" x1="2.0207" y1="34.4829" x2="10.8332" y2="18.8607">
			<stop  offset="0" style="stop-color:#FF8408"/>
			<stop  offset="1" style="stop-color:#DC4715"/>
		</linearGradient>
		<path style="fill:url(#SVGID_00000107562563398017494290000002783876022183364030_);" d="M9.9,16c0,0,0-0.1,0-0.1L0.5,32
			c0,0,0,0.1,0,0.1l2.7,4.6c0,0.1,0.2,0.1,0.2,0l9.2-16L9.9,16z"/>
	</g>
	<g>
		
			<linearGradient id="SVGID_00000093886902029575498550000009009676704678547597_" gradientUnits="userSpaceOnUse" x1="19.9358" y1="22.8382" x2="22.3691" y2="18.7827">
			<stop  offset="0" style="stop-color:#F76718"/>
			<stop  offset="1" style="stop-color:#DC4715"/>
		</linearGradient>
		<path style="fill:url(#SVGID_00000093886902029575498550000009009676704678547597_);" d="M18.3,20.9l2.8,4.9l2.9-5L21.2,16
			c0,0,0-0.1,0-0.1L18.3,20.9z"/>
	</g>
	<g>
		
			<linearGradient id="SVGID_00000095309832486601137950000006819006833902827144_" gradientUnits="userSpaceOnUse" x1="13.5803" y1="34.0076" x2="16.2253" y2="29.2244">
			<stop  offset="0" style="stop-color:#FF8408"/>
			<stop  offset="1" style="stop-color:#F76718"/>
		</linearGradient>
		<path style="fill:url(#SVGID_00000095309832486601137950000006819006833902827144_);" d="M14.5,27.4L11.9,32c0,0,0,0.1,0,0.1
			l2.7,4.6c0,0.1,0.2,0.1,0.2,0l2.7-4.6c0,0,0-0.1,0-0.1l-2.7-4.6C14.7,27.3,14.6,27.3,14.5,27.4z"/>
	</g>
</g>
<g id="front">
	<g>
		
			<linearGradient id="SVGID_00000088813993127847867930000010754147138269263544_" gradientUnits="userSpaceOnUse" x1="35.355" y1="16.2385" x2="45.738" y2="33.5273">
			<stop  offset="0" style="stop-color:#FF8408"/>
			<stop  offset="1" style="stop-color:#FFB42C"/>
		</linearGradient>
		<path style="fill:url(#SVGID_00000088813993127847867930000010754147138269263544_);" d="M44.8,36.8l2.7-4.6c0,0,0-0.1,0-0.1
			l-12-20.8c0-0.1-0.2-0.1-0.2,0l-2.7,4.6c0,0,0,0.1,0,0.1l12,20.8C44.6,36.9,44.8,36.9,44.8,36.8z"/>
	</g>
	<g>
		
			<linearGradient id="SVGID_00000095300647576929682630000016404395845408792734_" gradientUnits="userSpaceOnUse" x1="11.8197" y1="13.6668" x2="23.2113" y2="35.0503">
			<stop  offset="0" style="stop-color:#FF8408"/>
			<stop  offset="1" style="stop-color:#FFB42C"/>
		</linearGradient>
		<path style="fill:url(#SVGID_00000095300647576929682630000016404395845408792734_);" d="M22.1,36.8l2.7-4.6c0,0,0-0.1,0-0.1
			l-12-20.8c0-0.1-0.2-0.1-0.2,0l-2.7,4.6c0,0,0,0.1,0,0.1l12,20.8C21.9,36.9,22.1,36.9,22.1,36.8z"/>
	</g>
	<g>
		
			<linearGradient id="SVGID_00000086664391991681419740000003732130768485234048_" gradientUnits="userSpaceOnUse" x1="22.8706" y1="13.8438" x2="31.2973" y2="28.6749">
			<stop  offset="0" style="stop-color:#FF8408"/>
			<stop  offset="1" style="stop-color:#FFB42C"/>
		</linearGradient>
		<path style="fill:url(#SVGID_00000086664391991681419740000003732130768485234048_);" d="M29.8,30.4l2.7-4.6c0,0,0-0.1,0-0.1
			l-8.3-14.4c0-0.1-0.2-0.1-0.2,0l-2.7,4.6c0,0,0,0.1,0,0.1l8.3,14.4C29.6,30.5,29.7,30.5,29.8,30.4z"/>
	</g>
</g>
</svg>
